<?xml version="1.0" ?><svg version="1.1" viewBox="0 0 165.332992553711 165.332992553711" xmlns="http://www.w3.org/2000/svg" xmlns:xlink="http://www.w3.org/1999/xlink"><defs><linearGradient id="def0" x1="0.500004" x2="0.500004" y1="1.36959" y2="-0.00749496"><stop offset="0" stop-color="#004400"/><stop offset="0.510989" stop-color="#018C01"/><stop offset="1" stop-color="#91CD91"/></linearGradient><linearGradient id="def1" x1="0.500006" x2="0.500006" y1="1.36959" y2="-0.00747624"><stop offset="0" stop-color="#FFFFFF" style="stop-opacity:0.227450980392157"/><stop offset="0.503705" stop-color="#FFFFFF" style="stop-opacity:0.188235294117647"/><stop offset="1" stop-color="#FFFFFF" style="stop-opacity:0.152941176470588"/></linearGradient></defs><g><path d="M0,82.6667C0,128.323,37.0107,165.333,82.668,165.333L82.668,165.333C128.325,165.333,165.333,128.323,165.333,82.6667L165.333,82.6667C165.333,37.0107,128.325,0,82.668,0L82.668,0C37.0107,0,0,37.0107,0,82.6667z" fill="url(#def0)"/><path d="M133.283,34.5333C133.283,50.544 110.211,63.5253 81.7507,63.5253 53.292,63.5253 30.2227,50.544 30.2227,34.5333 30.2227,18.5227 53.292,5.54132 81.7507,5.54132 110.211,5.54132 133.283,18.5227 133.283,34.5333z" fill="url(#def1)"/><path d="M81.8959,13.3776C98.8039,13.3776 114.617,16.3589 128.132,21.5349 116.076,11.8003 99.8132,5.8176 81.8959,5.8176 63.9785,5.8176 47.7119,11.8003 35.6585,21.5349 49.1705,16.3589 64.9839,13.3776 81.8959,13.3776z" fill="#FFFFFF"/><path d="M43.7005,74.9921L82.6885,36.0001 121.683,74.9921 121.683,100.711 92.0245,71.0535 92.0245,129.333 73.1459,129.333 73.1459,71.2588 43.6499,100.76 43.7005,74.9921z" fill="#FFFFFF"/></g></svg>